{"title":"Lifeforce 1985 BRRip x264 AC3 PsiX","uid":8585034,"size":1559242031,"categoryP":"video","categoryS":"movies_dvdr","magnet":"?xt=urn:btih:d49775b2afb6ed34b22cec66dfb82adcb45479f7&amp;dn=Lifeforce+1985+BRRip+x264+AC3+PsiX&amp;tr=udp%3A%2F%2Ftracker.openbittorrent.com%3A80&amp;tr=udp%3A%2F%2Fopen.demonii.com%3A1337&amp;tr=udp%3A%2F%2Ftracker.coppersurfer.tk%3A6969&amp;tr=udp%3A%2F%2Fexodus.desync.com%3A6969","seeders":2,"leechers":1,"uploader":"sakhslitsa","files":2,"time":1371508587,"description":"Lifeforce 1985 BRRip XviD PsiX\n\n &lt;a href=&quot;\nhttp://www.freeimgshost.com/fullsize/1a1numkxerxlwmjicmmp.jpg&quot; rel=&quot;nofollow&quot; target=&quot;_NEW&quot;&gt;\nhttp://www.freeimgshost.com/fullsize/1a1numkxerxlwmjicmmp.jpg&lt;/a&gt;\n &lt;a href=&quot;\nhttp://www.freeimgshost.com/fullsize/midlr3wf0gvm3udcztw.jpg&quot; rel=&quot;nofollow&quot; target=&quot;_NEW&quot;&gt;\nhttp://www.freeimgshost.com/fullsize/midlr3wf0gvm3udcztw.jpg&lt;/a&gt;\n\n\n\n\n\n\nThe crew of the space shuttle Churchill finds a 150-mile long spaceship \nhidden in the corona of Halley's comet. The crew finds hundreds of dead,\n shrivelled bat-like creatures and three naked humanoid bodies (two male \nand one female) in suspended animation within glass containers. The crew \nrecovers the three aliens and begins the return trip to Earth.\n\nDuring the return journey, mission control loses contact with the shuttle \nand a rescue mission is launched to investigate. The rescuers discover that \nthe Churchill has been severely damaged by fire, with its internal components\n destroyed, and the three containers bearing the aliens are all that remain\n intact. The aliens are taken to the European Space Research Centre in\n London where they...\n\n\n\nDirected by............Tobe Hooper\nProduced by.............Yoram Globus\nMenahem Golan\n\nScreenplay by...........Dan O'Bannon\nDon Jakoby\n\nBased on \tThe Space Vampires \nby Colin Wilson\n\nStarring..........Steve Railsback\nPeter Firth\nFrank Finlay\nMathilda May\n\nMusic by.........Henry Mancini \n\n\n\n\n\n &lt;a href=&quot;\nhttp://www.freeimgshost.com/fullsize/nnwtnf7388ibryfy19.png&quot; rel=&quot;nofollow&quot; target=&quot;_NEW&quot;&gt;\nhttp://www.freeimgshost.com/fullsize/nnwtnf7388ibryfy19.png&lt;/a&gt;\n &lt;a href=&quot;\nhttp://www.freeimgshost.com/fullsize/h638umst4j0eu1kcb1l.png&quot; rel=&quot;nofollow&quot; target=&quot;_NEW&quot;&gt;\nhttp://www.freeimgshost.com/fullsize/h638umst4j0eu1kcb1l.png&lt;/a&gt;\n &lt;a href=&quot;\nhttp://www.freeimgshost.com/fullsize/i381g5k3s4p92v4w335j.png&quot; rel=&quot;nofollow&quot; target=&quot;_NEW&quot;&gt;\nhttp://www.freeimgshost.com/fullsize/i381g5k3s4p92v4w335j.png&lt;/a&gt;\n &lt;a href=&quot;\nhttp://www.freeimgshost.com/fullsize/zc19ipy6528rhjr1im4.png&quot; rel=&quot;nofollow&quot; target=&quot;_NEW&quot;&gt;\nhttp://www.freeimgshost.com/fullsize/zc19ipy6528rhjr1im4.png&lt;/a&gt;\n\n\n\n\n\nLifeforce.1985.BRRip.x264.AC3-PsiX.mkv\nFormat : Matroska\nFormat version : Version 2\nFile size : 1.45 GiB\nDuration : 1h 56mn\nOverall bit rate : 1 788 Kbps\nEncoded date : UTC 2013-06-17 13:30:31\nWriting application : mkvmerge v6.2.0 ('Promised Land') built on Apr 28 2013 12:22:01\nWriting library : libebml v1.3.0 + libmatroska v1.4.0\n\nVideo\nID : 1\nFormat : AVC\nFormat/Info : Advanced Video Codec\nFormat profile : &lt;a class=&quot;__cf_email__&quot; href=&quot;/cdn-cgi/l/email-protection&quot; data-cfemail=&quot;2068494748606c140e11&quot;&gt;[email&amp;#160;protected]&lt;/a&gt;&lt;script cf-hash='f9e31' type=&quot;text/javascript&quot;&gt;\n/* &lt;![CDATA[ */!function(){try{var t=&quot;currentScript&quot;in document?document.currentScript:function(){for(var t=document.getElementsByTagName(&quot;script&quot;),e=t.length;e--;)if(t[e].getAttribute(&quot;cf-hash&quot;))return t[e]}();if(t&amp;&amp;t.previousSibling){var e,r,n,i,c=t.previousSibling,a=c.getAttribute(&quot;data-cfemail&quot;);if(a){for(e=&quot;&quot;,r=parseInt(a.substr(0,2),16),n=2;a.length-n;n+=2)i=parseInt(a.substr(n,2),16)^r,e+=String.fromCharCode(i);e=document.createTextNode(e),c.parentNode.replaceChild(e,c)}}}catch(u){}}();/* ]]&gt; */&lt;/script&gt;\nFormat settings, CABAC : Yes\nFormat settings, ReFrames : 5 frames\nCodec ID : V_MPEG4/ISO/AVC\nDuration : 1h 56mn\nBit rate : 1 339 Kbps\nWidth : 720 pixels\nHeight : 304 pixels\nDisplay aspect ratio : 2.35:1\nFrame rate mode : Constant\nFrame rate : 23.976 fps\nColor space : YUV\nChroma subsampling : 4:2:0\nBit depth : 8 bits\nScan type : Progressive\nBits/(Pixel*Frame) : 0.255\nStream size : 1.06 GiB (73%)\nWriting library : x264 core 133 r2334 a3ac64b\n\n\nAudio\nID : 2\nFormat : AC-3\nFormat/Info : Audio Coding 3\nMode extension : CM (complete main)\nFormat settings, Endianness : Big\nCodec ID : A_AC3\nDuration : 1h 56mn\nBit rate mode : Constant\nBit rate : 448 Kbps\nChannel(s) : 6 channels\nChannel positions : Front: L C R, Side: L R, LFE\nSampling rate : 48.0 KHz\nBit depth : 16 bits\nCompression mode : Lossy\nStream size : 373 MiB (25%)\nLanguage : English\nDefault : Yes\nForced : No\n\n\n\nEncoded............: PsiX\nSource.............: 1080p-HD4U\nSubs..........No\n\n","torrent":{"xt":"urn:btih:d49775b2afb6ed34b22cec66dfb82adcb45479f7","amp;dn":"Lifeforce+1985+BRRip+x264+AC3+PsiX","amp;tr":["udp%3A%2F%2Ftracker.openbittorrent.com%3A80","udp%3A%2F%2Fopen.demonii.com%3A1337","udp%3A%2F%2Ftracker.coppersurfer.tk%3A6969","udp%3A%2F%2Fexodus.desync.com%3A6969"],"infoHash":"d49775b2afb6ed34b22cec66dfb82adcb45479f7","infoHashBuffer":{"type":"Buffer","data":[212,151,117,178,175,182,237,52,178,44,236,102,223,184,42,220,180,84,121,247]},"announce":[],"urlList":[]}}